<mxfile host="app.diagrams.net" agent="Mozilla/5.0 (Windows NT 10.0; Win64; x64) AppleWebKit/537.36 (KHTML, like Gecko) Chrome/131.0.0.0 Safari/537.36" version="25.0.3">
  <diagram name="第 1 页" id="52DwuSt1lLLi5HtNywio">
    <mxGraphModel dx="753" dy="677" grid="0" gridSize="10" guides="1" tooltips="1" connect="1" arrows="1" fold="1" page="1" pageScale="1" pageWidth="1169" pageHeight="1654" math="0" shadow="0">
      <root>
        <mxCell id="0" />
        <mxCell id="1" parent="0" />
        <mxCell id="10daeMJfv2n5kkDmHX4X-1" value="学生信息" style="rounded=0;whiteSpace=wrap;html=1;" vertex="1" parent="1">
          <mxGeometry x="317" y="127" width="75" height="37" as="geometry" />
        </mxCell>
        <mxCell id="10daeMJfv2n5kkDmHX4X-11" style="rounded=0;orthogonalLoop=1;jettySize=auto;html=1;exitX=0;exitY=1;exitDx=0;exitDy=0;entryX=1;entryY=0;entryDx=0;entryDy=0;endArrow=none;endFill=0;" edge="1" parent="1" source="10daeMJfv2n5kkDmHX4X-2" target="10daeMJfv2n5kkDmHX4X-1">
          <mxGeometry relative="1" as="geometry" />
        </mxCell>
        <mxCell id="10daeMJfv2n5kkDmHX4X-2" value="姓名" style="ellipse;whiteSpace=wrap;html=1;" vertex="1" parent="1">
          <mxGeometry x="443" y="54" width="42" height="33" as="geometry" />
        </mxCell>
        <mxCell id="10daeMJfv2n5kkDmHX4X-14" style="rounded=0;orthogonalLoop=1;jettySize=auto;html=1;exitX=1;exitY=0.5;exitDx=0;exitDy=0;endArrow=none;endFill=0;" edge="1" parent="1" source="10daeMJfv2n5kkDmHX4X-4" target="10daeMJfv2n5kkDmHX4X-1">
          <mxGeometry relative="1" as="geometry" />
        </mxCell>
        <mxCell id="10daeMJfv2n5kkDmHX4X-4" value="性别" style="ellipse;whiteSpace=wrap;html=1;" vertex="1" parent="1">
          <mxGeometry x="224" y="129" width="42" height="33" as="geometry" />
        </mxCell>
        <mxCell id="10daeMJfv2n5kkDmHX4X-9" style="rounded=0;orthogonalLoop=1;jettySize=auto;html=1;exitX=1;exitY=1;exitDx=0;exitDy=0;entryX=0;entryY=0;entryDx=0;entryDy=0;endArrow=none;endFill=0;" edge="1" parent="1" source="10daeMJfv2n5kkDmHX4X-5" target="10daeMJfv2n5kkDmHX4X-1">
          <mxGeometry relative="1" as="geometry" />
        </mxCell>
        <mxCell id="10daeMJfv2n5kkDmHX4X-5" value="学号" style="ellipse;whiteSpace=wrap;html=1;" vertex="1" parent="1">
          <mxGeometry x="224" y="54" width="42" height="33" as="geometry" />
        </mxCell>
        <mxCell id="10daeMJfv2n5kkDmHX4X-10" style="rounded=0;orthogonalLoop=1;jettySize=auto;html=1;exitX=0.5;exitY=1;exitDx=0;exitDy=0;endArrow=none;endFill=0;" edge="1" parent="1" source="10daeMJfv2n5kkDmHX4X-6" target="10daeMJfv2n5kkDmHX4X-1">
          <mxGeometry relative="1" as="geometry" />
        </mxCell>
        <mxCell id="10daeMJfv2n5kkDmHX4X-6" value="电话" style="ellipse;whiteSpace=wrap;html=1;" vertex="1" parent="1">
          <mxGeometry x="333.5" y="54" width="42" height="33" as="geometry" />
        </mxCell>
        <mxCell id="10daeMJfv2n5kkDmHX4X-13" style="rounded=0;orthogonalLoop=1;jettySize=auto;html=1;exitX=0.5;exitY=0;exitDx=0;exitDy=0;entryX=0.5;entryY=1;entryDx=0;entryDy=0;endArrow=none;endFill=0;" edge="1" parent="1" source="10daeMJfv2n5kkDmHX4X-7" target="10daeMJfv2n5kkDmHX4X-1">
          <mxGeometry relative="1" as="geometry" />
        </mxCell>
        <mxCell id="10daeMJfv2n5kkDmHX4X-7" value="年级&lt;div&gt;专业&lt;/div&gt;" style="ellipse;whiteSpace=wrap;html=1;" vertex="1" parent="1">
          <mxGeometry x="333.5" y="194" width="42" height="33" as="geometry" />
        </mxCell>
        <mxCell id="10daeMJfv2n5kkDmHX4X-12" style="rounded=0;orthogonalLoop=1;jettySize=auto;html=1;exitX=0;exitY=0.5;exitDx=0;exitDy=0;entryX=1;entryY=0.5;entryDx=0;entryDy=0;endArrow=none;endFill=0;" edge="1" parent="1" source="10daeMJfv2n5kkDmHX4X-8" target="10daeMJfv2n5kkDmHX4X-1">
          <mxGeometry relative="1" as="geometry" />
        </mxCell>
        <mxCell id="10daeMJfv2n5kkDmHX4X-8" value="学院" style="ellipse;whiteSpace=wrap;html=1;" vertex="1" parent="1">
          <mxGeometry x="443" y="129" width="42" height="33" as="geometry" />
        </mxCell>
        <mxCell id="10daeMJfv2n5kkDmHX4X-29" style="rounded=0;orthogonalLoop=1;jettySize=auto;html=1;exitX=1;exitY=1;exitDx=0;exitDy=0;entryX=0;entryY=0;entryDx=0;entryDy=0;endArrow=none;endFill=0;" edge="1" parent="1" source="10daeMJfv2n5kkDmHX4X-15" target="10daeMJfv2n5kkDmHX4X-28">
          <mxGeometry relative="1" as="geometry" />
        </mxCell>
        <mxCell id="10daeMJfv2n5kkDmHX4X-15" value="获奖证书信息" style="rounded=0;whiteSpace=wrap;html=1;" vertex="1" parent="1">
          <mxGeometry x="336" y="362" width="75" height="37" as="geometry" />
        </mxCell>
        <mxCell id="10daeMJfv2n5kkDmHX4X-16" style="rounded=0;orthogonalLoop=1;jettySize=auto;html=1;exitX=0;exitY=1;exitDx=0;exitDy=0;entryX=1;entryY=0;entryDx=0;entryDy=0;endArrow=none;endFill=0;" edge="1" parent="1" source="10daeMJfv2n5kkDmHX4X-17" target="10daeMJfv2n5kkDmHX4X-15">
          <mxGeometry relative="1" as="geometry" />
        </mxCell>
        <mxCell id="10daeMJfv2n5kkDmHX4X-17" value="指导教师" style="ellipse;whiteSpace=wrap;html=1;" vertex="1" parent="1">
          <mxGeometry x="462" y="289" width="58" height="30" as="geometry" />
        </mxCell>
        <mxCell id="10daeMJfv2n5kkDmHX4X-18" style="rounded=0;orthogonalLoop=1;jettySize=auto;html=1;exitX=1;exitY=0.5;exitDx=0;exitDy=0;endArrow=none;endFill=0;" edge="1" parent="1" source="10daeMJfv2n5kkDmHX4X-19" target="10daeMJfv2n5kkDmHX4X-15">
          <mxGeometry relative="1" as="geometry" />
        </mxCell>
        <mxCell id="10daeMJfv2n5kkDmHX4X-19" value="获奖人姓名" style="ellipse;whiteSpace=wrap;html=1;" vertex="1" parent="1">
          <mxGeometry x="220" y="357" width="65" height="44" as="geometry" />
        </mxCell>
        <mxCell id="10daeMJfv2n5kkDmHX4X-20" style="rounded=0;orthogonalLoop=1;jettySize=auto;html=1;exitX=1;exitY=1;exitDx=0;exitDy=0;entryX=0;entryY=0;entryDx=0;entryDy=0;endArrow=none;endFill=0;" edge="1" parent="1" source="10daeMJfv2n5kkDmHX4X-21" target="10daeMJfv2n5kkDmHX4X-15">
          <mxGeometry relative="1" as="geometry" />
        </mxCell>
        <mxCell id="10daeMJfv2n5kkDmHX4X-21" value="竞赛名称" style="ellipse;whiteSpace=wrap;html=1;" vertex="1" parent="1">
          <mxGeometry x="221" y="289" width="64" height="30" as="geometry" />
        </mxCell>
        <mxCell id="10daeMJfv2n5kkDmHX4X-22" style="rounded=0;orthogonalLoop=1;jettySize=auto;html=1;exitX=0.5;exitY=1;exitDx=0;exitDy=0;endArrow=none;endFill=0;" edge="1" parent="1" source="10daeMJfv2n5kkDmHX4X-23" target="10daeMJfv2n5kkDmHX4X-15">
          <mxGeometry relative="1" as="geometry" />
        </mxCell>
        <mxCell id="10daeMJfv2n5kkDmHX4X-23" value="获奖等级" style="ellipse;whiteSpace=wrap;html=1;" vertex="1" parent="1">
          <mxGeometry x="345.25" y="286.5" width="56.5" height="35" as="geometry" />
        </mxCell>
        <mxCell id="10daeMJfv2n5kkDmHX4X-24" style="rounded=0;orthogonalLoop=1;jettySize=auto;html=1;exitX=1;exitY=0;exitDx=0;exitDy=0;entryX=0;entryY=1;entryDx=0;entryDy=0;endArrow=none;endFill=0;" edge="1" parent="1" source="10daeMJfv2n5kkDmHX4X-25" target="10daeMJfv2n5kkDmHX4X-15">
          <mxGeometry relative="1" as="geometry" />
        </mxCell>
        <mxCell id="10daeMJfv2n5kkDmHX4X-25" value="证书路径" style="ellipse;whiteSpace=wrap;html=1;" vertex="1" parent="1">
          <mxGeometry x="239" y="439" width="54" height="32" as="geometry" />
        </mxCell>
        <mxCell id="10daeMJfv2n5kkDmHX4X-26" style="rounded=0;orthogonalLoop=1;jettySize=auto;html=1;exitX=0;exitY=0.5;exitDx=0;exitDy=0;entryX=1;entryY=0.5;entryDx=0;entryDy=0;endArrow=none;endFill=0;" edge="1" parent="1" source="10daeMJfv2n5kkDmHX4X-27" target="10daeMJfv2n5kkDmHX4X-15">
          <mxGeometry relative="1" as="geometry" />
        </mxCell>
        <mxCell id="10daeMJfv2n5kkDmHX4X-27" value="证书编号" style="ellipse;whiteSpace=wrap;html=1;" vertex="1" parent="1">
          <mxGeometry x="462" y="365.5" width="65" height="30" as="geometry" />
        </mxCell>
        <mxCell id="10daeMJfv2n5kkDmHX4X-28" value="证书图片" style="ellipse;whiteSpace=wrap;html=1;" vertex="1" parent="1">
          <mxGeometry x="462" y="439" width="62" height="34" as="geometry" />
        </mxCell>
        <mxCell id="10daeMJfv2n5kkDmHX4X-49" style="edgeStyle=orthogonalEdgeStyle;rounded=0;orthogonalLoop=1;jettySize=auto;html=1;exitX=0.5;exitY=1;exitDx=0;exitDy=0;entryX=0.5;entryY=0;entryDx=0;entryDy=0;" edge="1" parent="1" source="10daeMJfv2n5kkDmHX4X-30" target="10daeMJfv2n5kkDmHX4X-34">
          <mxGeometry relative="1" as="geometry" />
        </mxCell>
        <mxCell id="10daeMJfv2n5kkDmHX4X-50" style="edgeStyle=orthogonalEdgeStyle;rounded=0;orthogonalLoop=1;jettySize=auto;html=1;exitX=0.5;exitY=1;exitDx=0;exitDy=0;" edge="1" parent="1" source="10daeMJfv2n5kkDmHX4X-30" target="10daeMJfv2n5kkDmHX4X-36">
          <mxGeometry relative="1" as="geometry" />
        </mxCell>
        <mxCell id="10daeMJfv2n5kkDmHX4X-51" style="edgeStyle=orthogonalEdgeStyle;rounded=0;orthogonalLoop=1;jettySize=auto;html=1;exitX=0.5;exitY=1;exitDx=0;exitDy=0;" edge="1" parent="1" source="10daeMJfv2n5kkDmHX4X-30" target="10daeMJfv2n5kkDmHX4X-39">
          <mxGeometry relative="1" as="geometry" />
        </mxCell>
        <mxCell id="10daeMJfv2n5kkDmHX4X-52" style="edgeStyle=orthogonalEdgeStyle;rounded=0;orthogonalLoop=1;jettySize=auto;html=1;exitX=0.5;exitY=1;exitDx=0;exitDy=0;" edge="1" parent="1" source="10daeMJfv2n5kkDmHX4X-30" target="10daeMJfv2n5kkDmHX4X-40">
          <mxGeometry relative="1" as="geometry" />
        </mxCell>
        <mxCell id="10daeMJfv2n5kkDmHX4X-81" style="edgeStyle=orthogonalEdgeStyle;rounded=0;orthogonalLoop=1;jettySize=auto;html=1;exitX=1;exitY=0.5;exitDx=0;exitDy=0;entryX=1;entryY=0.5;entryDx=0;entryDy=0;" edge="1" parent="1" source="10daeMJfv2n5kkDmHX4X-30" target="10daeMJfv2n5kkDmHX4X-44">
          <mxGeometry relative="1" as="geometry">
            <Array as="points">
              <mxPoint x="747" y="587" />
              <mxPoint x="747" y="1212" />
            </Array>
          </mxGeometry>
        </mxCell>
        <mxCell id="10daeMJfv2n5kkDmHX4X-30" value="开始" style="rounded=1;whiteSpace=wrap;html=1;" vertex="1" parent="1">
          <mxGeometry x="398" y="571" width="57" height="31" as="geometry" />
        </mxCell>
        <mxCell id="10daeMJfv2n5kkDmHX4X-53" style="edgeStyle=orthogonalEdgeStyle;rounded=0;orthogonalLoop=1;jettySize=auto;html=1;exitX=0.5;exitY=1;exitDx=0;exitDy=0;entryX=0.5;entryY=0;entryDx=0;entryDy=0;" edge="1" parent="1" source="10daeMJfv2n5kkDmHX4X-34" target="10daeMJfv2n5kkDmHX4X-37">
          <mxGeometry relative="1" as="geometry" />
        </mxCell>
        <mxCell id="10daeMJfv2n5kkDmHX4X-34" value="新增学生信息" style="shape=process;whiteSpace=wrap;html=1;backgroundOutline=1;" vertex="1" parent="1">
          <mxGeometry x="290" y="643" width="66" height="53" as="geometry" />
        </mxCell>
        <mxCell id="10daeMJfv2n5kkDmHX4X-66" style="edgeStyle=orthogonalEdgeStyle;rounded=0;orthogonalLoop=1;jettySize=auto;html=1;entryX=0.5;entryY=0;entryDx=0;entryDy=0;" edge="1" parent="1" source="10daeMJfv2n5kkDmHX4X-35" target="10daeMJfv2n5kkDmHX4X-46">
          <mxGeometry relative="1" as="geometry" />
        </mxCell>
        <mxCell id="10daeMJfv2n5kkDmHX4X-35" value="学生列表" style="shape=document;whiteSpace=wrap;html=1;boundedLbl=1;" vertex="1" parent="1">
          <mxGeometry x="392" y="1047" width="85" height="53" as="geometry" />
        </mxCell>
        <mxCell id="10daeMJfv2n5kkDmHX4X-54" style="edgeStyle=orthogonalEdgeStyle;rounded=0;orthogonalLoop=1;jettySize=auto;html=1;exitX=0.5;exitY=1;exitDx=0;exitDy=0;entryX=0.5;entryY=0;entryDx=0;entryDy=0;" edge="1" parent="1" source="10daeMJfv2n5kkDmHX4X-36" target="10daeMJfv2n5kkDmHX4X-38">
          <mxGeometry relative="1" as="geometry" />
        </mxCell>
        <mxCell id="10daeMJfv2n5kkDmHX4X-36" value="查询学生信息" style="shape=process;whiteSpace=wrap;html=1;backgroundOutline=1;" vertex="1" parent="1">
          <mxGeometry x="149.5" y="643" width="67" height="53" as="geometry" />
        </mxCell>
        <mxCell id="10daeMJfv2n5kkDmHX4X-70" style="edgeStyle=orthogonalEdgeStyle;rounded=0;orthogonalLoop=1;jettySize=auto;html=1;exitX=0.5;exitY=1;exitDx=0;exitDy=0;entryX=0.5;entryY=0;entryDx=0;entryDy=0;" edge="1" parent="1" source="10daeMJfv2n5kkDmHX4X-37" target="10daeMJfv2n5kkDmHX4X-68">
          <mxGeometry relative="1" as="geometry" />
        </mxCell>
        <mxCell id="10daeMJfv2n5kkDmHX4X-37" value="填写学生信息" style="rounded=0;whiteSpace=wrap;html=1;" vertex="1" parent="1">
          <mxGeometry x="277" y="742" width="92" height="42" as="geometry" />
        </mxCell>
        <mxCell id="10daeMJfv2n5kkDmHX4X-69" style="edgeStyle=orthogonalEdgeStyle;rounded=0;orthogonalLoop=1;jettySize=auto;html=1;exitX=0.5;exitY=1;exitDx=0;exitDy=0;entryX=0.5;entryY=0;entryDx=0;entryDy=0;" edge="1" parent="1" source="10daeMJfv2n5kkDmHX4X-38" target="10daeMJfv2n5kkDmHX4X-68">
          <mxGeometry relative="1" as="geometry" />
        </mxCell>
        <mxCell id="10daeMJfv2n5kkDmHX4X-38" value="输入查询条件" style="rounded=0;whiteSpace=wrap;html=1;" vertex="1" parent="1">
          <mxGeometry x="137" y="742" width="92" height="42" as="geometry" />
        </mxCell>
        <mxCell id="10daeMJfv2n5kkDmHX4X-56" style="edgeStyle=orthogonalEdgeStyle;rounded=0;orthogonalLoop=1;jettySize=auto;html=1;exitX=0.5;exitY=1;exitDx=0;exitDy=0;" edge="1" parent="1" source="10daeMJfv2n5kkDmHX4X-39" target="10daeMJfv2n5kkDmHX4X-47">
          <mxGeometry relative="1" as="geometry" />
        </mxCell>
        <mxCell id="10daeMJfv2n5kkDmHX4X-39" value="删除学生信息" style="shape=process;whiteSpace=wrap;html=1;backgroundOutline=1;" vertex="1" parent="1">
          <mxGeometry x="503.5" y="643" width="67" height="53" as="geometry" />
        </mxCell>
        <mxCell id="10daeMJfv2n5kkDmHX4X-57" style="edgeStyle=orthogonalEdgeStyle;rounded=0;orthogonalLoop=1;jettySize=auto;html=1;exitX=0.5;exitY=1;exitDx=0;exitDy=0;" edge="1" parent="1" source="10daeMJfv2n5kkDmHX4X-40" target="10daeMJfv2n5kkDmHX4X-42">
          <mxGeometry relative="1" as="geometry" />
        </mxCell>
        <mxCell id="10daeMJfv2n5kkDmHX4X-40" value="修改学生信息" style="shape=process;whiteSpace=wrap;html=1;backgroundOutline=1;" vertex="1" parent="1">
          <mxGeometry x="648.5" y="643" width="67" height="53" as="geometry" />
        </mxCell>
        <mxCell id="10daeMJfv2n5kkDmHX4X-72" style="edgeStyle=orthogonalEdgeStyle;rounded=0;orthogonalLoop=1;jettySize=auto;html=1;exitX=0.5;exitY=1;exitDx=0;exitDy=0;entryX=0.5;entryY=0;entryDx=0;entryDy=0;" edge="1" parent="1" source="10daeMJfv2n5kkDmHX4X-42" target="10daeMJfv2n5kkDmHX4X-68">
          <mxGeometry relative="1" as="geometry" />
        </mxCell>
        <mxCell id="10daeMJfv2n5kkDmHX4X-42" value="编辑并保存修改" style="rounded=0;whiteSpace=wrap;html=1;" vertex="1" parent="1">
          <mxGeometry x="636" y="742" width="92" height="42" as="geometry" />
        </mxCell>
        <mxCell id="10daeMJfv2n5kkDmHX4X-75" style="edgeStyle=orthogonalEdgeStyle;rounded=0;orthogonalLoop=1;jettySize=auto;html=1;entryX=0;entryY=0.5;entryDx=0;entryDy=0;" edge="1" parent="1" source="10daeMJfv2n5kkDmHX4X-44" target="10daeMJfv2n5kkDmHX4X-30">
          <mxGeometry relative="1" as="geometry">
            <Array as="points">
              <mxPoint x="129" y="1212" />
              <mxPoint x="129" y="587" />
            </Array>
          </mxGeometry>
        </mxCell>
        <mxCell id="10daeMJfv2n5kkDmHX4X-44" value="结束" style="rounded=1;whiteSpace=wrap;html=1;" vertex="1" parent="1">
          <mxGeometry x="406" y="1196" width="57" height="31" as="geometry" />
        </mxCell>
        <mxCell id="10daeMJfv2n5kkDmHX4X-74" style="edgeStyle=orthogonalEdgeStyle;rounded=0;orthogonalLoop=1;jettySize=auto;html=1;exitX=0.5;exitY=1;exitDx=0;exitDy=0;" edge="1" parent="1" source="10daeMJfv2n5kkDmHX4X-46" target="10daeMJfv2n5kkDmHX4X-44">
          <mxGeometry relative="1" as="geometry" />
        </mxCell>
        <mxCell id="10daeMJfv2n5kkDmHX4X-46" value="返回学生列表" style="rounded=0;whiteSpace=wrap;html=1;" vertex="1" parent="1">
          <mxGeometry x="388.5" y="1119" width="92" height="42" as="geometry" />
        </mxCell>
        <mxCell id="10daeMJfv2n5kkDmHX4X-71" style="edgeStyle=orthogonalEdgeStyle;rounded=0;orthogonalLoop=1;jettySize=auto;html=1;exitX=0.5;exitY=1;exitDx=0;exitDy=0;" edge="1" parent="1" source="10daeMJfv2n5kkDmHX4X-47" target="10daeMJfv2n5kkDmHX4X-68">
          <mxGeometry relative="1" as="geometry" />
        </mxCell>
        <mxCell id="10daeMJfv2n5kkDmHX4X-47" value="确认后移除记录" style="rounded=0;whiteSpace=wrap;html=1;" vertex="1" parent="1">
          <mxGeometry x="491" y="742" width="92" height="42" as="geometry" />
        </mxCell>
        <mxCell id="10daeMJfv2n5kkDmHX4X-73" style="edgeStyle=orthogonalEdgeStyle;rounded=0;orthogonalLoop=1;jettySize=auto;html=1;exitX=0.5;exitY=1;exitDx=0;exitDy=0;entryX=0.5;entryY=0;entryDx=0;entryDy=0;" edge="1" parent="1" source="10daeMJfv2n5kkDmHX4X-68" target="10daeMJfv2n5kkDmHX4X-80">
          <mxGeometry relative="1" as="geometry" />
        </mxCell>
        <mxCell id="10daeMJfv2n5kkDmHX4X-76" style="edgeStyle=orthogonalEdgeStyle;rounded=0;orthogonalLoop=1;jettySize=auto;html=1;exitX=0;exitY=0.5;exitDx=0;exitDy=0;" edge="1" parent="1" source="10daeMJfv2n5kkDmHX4X-68">
          <mxGeometry relative="1" as="geometry">
            <mxPoint x="129.42584228515625" y="882.1666666666667" as="targetPoint" />
          </mxGeometry>
        </mxCell>
        <mxCell id="10daeMJfv2n5kkDmHX4X-68" value="是否修改学生表" style="rhombus;whiteSpace=wrap;html=1;" vertex="1" parent="1">
          <mxGeometry x="369" y="856" width="131" height="52" as="geometry" />
        </mxCell>
        <mxCell id="10daeMJfv2n5kkDmHX4X-78" value="否" style="text;html=1;align=center;verticalAlign=middle;whiteSpace=wrap;rounded=0;" vertex="1" parent="1">
          <mxGeometry x="233" y="853" width="60" height="30" as="geometry" />
        </mxCell>
        <mxCell id="10daeMJfv2n5kkDmHX4X-79" value="是" style="text;html=1;align=center;verticalAlign=middle;whiteSpace=wrap;rounded=0;" vertex="1" parent="1">
          <mxGeometry x="386" y="912" width="60" height="30" as="geometry" />
        </mxCell>
        <mxCell id="10daeMJfv2n5kkDmHX4X-82" style="edgeStyle=orthogonalEdgeStyle;rounded=0;orthogonalLoop=1;jettySize=auto;html=1;exitX=0.5;exitY=1;exitDx=0;exitDy=0;" edge="1" parent="1" source="10daeMJfv2n5kkDmHX4X-80" target="10daeMJfv2n5kkDmHX4X-35">
          <mxGeometry relative="1" as="geometry" />
        </mxCell>
        <mxCell id="10daeMJfv2n5kkDmHX4X-80" value="修改" style="rounded=0;whiteSpace=wrap;html=1;" vertex="1" parent="1">
          <mxGeometry x="388.5" y="959" width="92" height="42" as="geometry" />
        </mxCell>
      </root>
    </mxGraphModel>
  </diagram>
</mxfile>
